<svg xmlns="http://www.w3.org/2000/svg" xml:space="preserve" width="1500" height="213" data-id="lg_m2mExM7W0jzcfOLrsu" data-version="1"><g data-padding="20"><g transform="translate(10 3.81)scale(.96422)"><rect width="609.13" height="216.73" x="109.353" y="-444.53" fill="#1e1e1e" paint-order="stroke" rx="0" ry="0" transform="matrix(.88 0 0 .88 414.9 413.38)" vector-effect="non-scaling-stroke"/><rect width="609.13" height="216.73" x="109.353" y="-444.53" fill="#fff" stroke="#000" stroke-width="8" paint-order="stroke" rx="0" ry="0" transform="matrix(.88 0 0 .88 391.52 391.27)" vector-effect="non-scaling-stroke"/><path fill="#1e1e1e" d="M538.304 126.61q-7.83 0-14.12-2.7-6.28-2.7-10.35-7.73-4.06-5.02-5.28-11.94l11.01-1.67q1.67 6.67 6.97 10.38t12.37 3.71q4.4 0 8.08-1.39 3.69-1.39 5.94-3.99t2.25-6.23q0-1.97-.69-3.49-.68-1.51-1.86-2.65-1.19-1.14-2.88-1.97t-3.71-1.44l-18.64-5.5q-2.73-.81-5.55-2.1-2.83-1.29-5.18-3.38-2.35-2.1-3.81-5.2-1.47-3.11-1.47-7.55 0-6.72 3.46-11.39t9.37-7.07 13.23-2.4q7.37.1 13.21 2.63 5.83 2.52 9.69 7.24 3.87 4.72 5.33 11.44l-11.31 1.92q-.76-4.09-3.23-7.04-2.48-2.96-6.06-4.55-3.59-1.59-7.78-1.64-4.04-.1-7.4 1.21t-5.35 3.69q-2 2.37-2 5.45 0 3.03 1.77 4.9t4.37 2.95q2.6 1.09 5.17 1.8l13.44 3.78q2.52.71 5.73 1.9t6.21 3.31q3.01 2.12 4.98 5.63 1.96 3.51 1.96 8.81 0 5.5-2.22 9.67t-6.08 6.97q-3.87 2.8-8.92 4.22-5.05 1.41-10.65 1.41m69.85-10.45v8.93q-5.15 1.01-10.1.86t-8.84-1.92q-3.89-1.76-5.86-5.55-1.76-3.38-1.89-6.89t-.13-7.96V55.4h10.61v47.73q0 3.28.08 5.7.07 2.43 1.03 4.09 1.82 3.14 5.78 3.56 3.97.43 9.32-.32m0-37.12h-37.27v-8.49h37.27Zm32.61 47.58q-8.18 0-14.19-3.69-6.01-3.68-9.26-10.17-3.26-6.49-3.26-14.98 0-8.53 3.33-15.02t9.34-10.1 14.04-3.61q8.18 0 14.19 3.69 6.01 3.68 9.3 10.15 3.28 6.46 3.28 14.89 0 8.54-3.31 15.03t-9.32 10.15-14.14 3.66m0-9.95q7.83 0 11.69-5.28 3.87-5.27 3.87-13.61 0-8.53-3.92-13.66-3.91-5.12-11.64-5.12-5.3 0-8.73 2.4-3.44 2.4-5.1 6.61-1.67 4.22-1.67 9.77 0 8.59 3.94 13.74t11.56 5.15m48.53 8.42h-10.65V70.55h9.39v13.24l-1.31-1.72q1.01-2.63 2.62-4.82 1.62-2.2 3.74-3.61 2.07-1.52 4.62-2.35 2.55-.84 5.23-1.01 2.68-.18 5.15.27v9.9q-2.68-.7-5.93-.4-3.26.3-5.99 2.07-2.57 1.67-4.06 4.04t-2.15 5.28q-.66 2.9-.66 6.13Zm44.44 24.24h-10.05l10.56-28.73.15 8.48-23.79-58.53h11.01l17.78 45.2h-3.23l16.97-45.2h10.7Zm86.86-24.24h-10.55V62.32h-24.19v-9.95h58.93v9.95h-24.19Zm37.88 0h-10.66V70.55h9.4v13.24l-1.32-1.72q1.01-2.63 2.63-4.82 1.62-2.2 3.74-3.61 2.07-1.52 4.62-2.35 2.55-.84 5.22-1.01 2.68-.18 5.15.27v9.9q-2.67-.7-5.93-.4t-5.98 2.07q-2.58 1.67-4.07 4.04t-2.14 5.28q-.66 2.9-.66 6.13Zm51.57 1.53q-8.13 0-14.27-3.56-6.13-3.56-9.54-9.95t-3.41-14.82q0-8.94 3.36-15.5 3.36-6.57 9.37-10.15 6.01-3.59 13.98-3.59 8.34 0 14.19 3.86 5.86 3.87 8.77 10.99 2.9 7.12 2.29 16.91h-10.55v-3.83q-.1-9.5-3.61-14.04-3.51-4.55-10.68-4.55-7.93 0-11.92 5t-3.99 14.44q0 8.99 3.99 13.92 3.99 4.92 11.51 4.92 4.95 0 8.56-2.25 3.61-2.24 5.63-6.43l10.36 3.28q-3.18 7.32-9.65 11.34-6.46 4.01-14.39 4.01m19.49-25.81h-38.93v-8.23h38.93Zm40.75 25.81q-8.13 0-14.27-3.56t-9.54-9.95q-3.41-6.39-3.41-14.82 0-8.94 3.35-15.5 3.36-6.57 9.37-10.15 6.01-3.59 13.99-3.59 8.33 0 14.19 3.86 5.86 3.87 8.76 10.99 2.91 7.12 2.3 16.91h-10.55v-3.83q-.1-9.5-3.61-14.04-3.51-4.55-10.69-4.55-7.92 0-11.91 5t-3.99 14.44q0 8.99 3.99 13.92 3.99 4.92 11.51 4.92 4.95 0 8.56-2.25 3.61-2.24 5.63-6.43l10.35 3.28q-3.18 7.32-9.64 11.34-6.47 4.01-14.39 4.01m19.49-25.81h-38.94v-8.23h38.94Z"/><rect width="497.08" height="114.13" x="115.704" y="-352.881" fill="none" rx="0" ry="0" transform="translate(388.46 389.42)"/></g><path fill="transparent" stroke="transparent" d="M470.5 0h559v213h-559z"/></g></svg>